Coordinates
version=1
nRows=23
nColumns=34
inDegrees=no

Units are S.I. units (second, meters, Newtons, ...)
If the header above contains a line with 'inDegrees', this indicates whether rotational values are in degrees (yes) or radians (no).

endheader
time	pelvis_tilt	pelvis_list	pelvis_rotation	pelvis_tx	pelvis_ty	pelvis_tz	hip_flexion_r	hip_adduction_r	hip_rotation_r	knee_angle_r	ankle_angle_r	subtalar_angle_r	mtp_angle_r	hip_flexion_l	hip_adduction_l	hip_rotation_l	knee_angle_l	ankle_angle_l	subtalar_angle_l	mtp_angle_l	lumbar_extension	lumbar_bending	lumbar_rotation	arm_flex_r	arm_add_r	arm_rot_r	elbow_flex_r	pro_sup_r	arm_flex_l	arm_add_l	arm_rot_l	elbow_flex_l	pro_sup_l
0.91	-0.0132726	0.02902	-0.0377397	1.00256	0.966976	-0.22788	0.472199	-0.107254	0.0244355	0.808266	0.190553	0.0767083	0	0.00526452	0.0605943	0.315985	0.163957	0.284314	0.18757	0	-0.083241	-0.037293	-0.0999148	-0.223227	-0.118005	-0.267813	0.629804	2.09	0.00129365	-0.215009	-0.175762	0.769892	2.09
0.92	-0.0131405	0.025398	-0.0319394	1.01347	0.96694	-0.228239	0.480042	-0.102386	0.0168067	0.754878	0.200624	0.0787138	0	-0.0118798	0.0560489	0.326769	0.155905	0.28692	0.181011	0	-0.0862327	-0.0329126	-0.104603	-0.225967	-0.119161	-0.267509	0.626041	2.09	0.0106816	-0.21673	-0.166832	0.792693	2.09
0.93	-0.0134142	0.0228588	-0.0263431	1.02445	0.966598	-0.228498	0.486758	-0.0986231	0.0101507	0.699614	0.210535	0.0856782	0	-0.0283031	0.0524056	0.336953	0.148457	0.290229	0.175083	0	-0.0884723	-0.029893	-0.108588	-0.229066	-0.120009	-0.267494	0.622202	2.09	0.0198206	-0.218678	-0.157536	0.815138	2.09
0.94	-0.013929	0.0214581	-0.0207874	1.03552	0.965962	-0.228686	0.492329	-0.0961963	0.00412575	0.643295	0.220428	0.0990958	0	-0.0443142	0.0497544	0.34664	0.141467	0.294228	0.169836	0	-0.0901738	-0.0282805	-0.112057	-0.232571	-0.120499	-0.26812	0.618542	2.09	0.0287524	-0.220804	-0.148004	0.837135	2.09
0.95	-0.0145027	0.0211827	-0.0151235	1.04669	0.965054	-0.228827	0.49673	-0.0952135	-0.0016609	0.586703	0.23027	0.120136	0	-0.0602677	0.0480883	0.356091	0.134718	0.298771	0.165019	0	-0.0915768	-0.0280472	-0.115213	-0.236448	-0.120607	-0.269619	0.615267	2.09	0.037492	-0.22303	-0.138435	0.858619	2.09
0.96	-0.0149751	0.0219188	-0.00922052	1.05798	0.963897	-0.228933	0.499921	-0.0955889	-0.00751047	0.530464	0.239798	0.149212	0	-0.076525	0.0472503	0.365746	0.127895	0.303579	0.160075	0	-0.0929043	-0.0290627	-0.118267	-0.240598	-0.120341	-0.272041	0.612452	2.09	0.0460244	-0.225267	-0.129058	0.879538	2.09
0.97	-0.0151014	0.0235117	-0.00288626	1.06939	0.962527	-0.229025	0.501766	-0.0975497	-0.0148997	0.475223	0.249416	0.188189	0	-0.0937595	0.0470573	0.377818	0.120277	0.30751	0.151846	0	-0.0944789	-0.031132	-0.121502	-0.244897	-0.119741	-0.275313	0.610098	2.09	0.0543204	-0.227408	-0.120073	0.899861	2.09
0.98	-0.0151113	0.0255834	0.00380299	1.08091	0.960948	-0.229061	0.50241	-0.0997827	-0.0211758	0.420973	0.257143	0.231061	0	-0.111607	0.046921	0.390958	0.111992	0.311049	0.142193	0	-0.0960973	-0.0338963	-0.124962	-0.249152	-0.11888	-0.278972	0.60789	2.09	0.0622773	-0.229395	-0.111699	0.919489	2.09
0.99	-0.0144803	0.0281127	0.0108848	1.0926	0.959212	-0.229094	0.501574	-0.10333	-0.0302532	0.368799	0.265237	0.283223	0	-0.132853	0.0472019	0.422888	0.0992721	0.304838	0.103224	0	-0.0982994	-0.0371905	-0.128524	-0.253557	-0.11769	-0.283961	0.606177	2.09	0.0700382	-0.231027	-0.103668	0.938135	2.09
1	-0.0145199	0.0298751	0.0184573	1.1043	0.957277	-0.228951	0.499403	-0.103635	-0.0274003	0.316227	0.267347	0.318265	0	-0.150409	0.0454788	0.431444	0.0916666	0.310851	0.101088	0	-0.099915	-0.0400482	-0.133109	-0.256941	-0.116865	-0.285842	0.602953	2.09	0.0769338	-0.232648	-0.0969782	0.956228	2.09
1.01	-0.0143382	0.0313898	0.0266122	1.1161	0.955205	-0.228769	0.495951	-0.104174	-0.0230584	0.266	0.269468	0.35172	0	-0.168581	0.0431253	0.443151	0.0836105	0.315144	0.0941582	0	-0.101812	-0.0427019	-0.138177	-0.260025	-0.115923	-0.288008	0.599524	2.09	0.0835164	-0.233978	-0.0906263	0.973079	2.09
1.02	-0.0141327	0.0325756	0.0351567	1.12802	0.953001	-0.228534	0.49176	-0.104456	-0.0148271	0.219129	0.271225	0.376852	0	-0.18702	0.0400645	0.457165	0.0753462	0.317879	0.083342	0	-0.103743	-0.0450765	-0.143758	-0.262614	-0.115186	-0.289136	0.595457	2.09	0.0895218	-0.235065	-0.0847015	0.98864	2.09
1.03	-0.0137092	0.0333825	0.0438874	1.14006	0.950699	-0.228249	0.487168	-0.104398	-0.00251104	0.17716	0.272834	0.390024	0	-0.206217	0.0362734	0.475929	0.0663612	0.317378	0.0644065	0	-0.105894	-0.0470503	-0.149732	-0.264653	-0.114796	-0.288985	0.59083	2.09	0.0948169	-0.235877	-0.0792262	1.00285	2.09
1.04	-0.0132521	0.0338657	0.0525896	1.15221	0.948306	-0.227919	0.48286	-0.104024	0.0132449	0.141489	0.274163	0.389179	0	-0.2257	0.0318968	0.498508	0.0571256	0.313661	0.0383657	0	-0.10803	-0.0486249	-0.155861	-0.26622	-0.11476	-0.287807	0.585915	2.09	0.0993161	-0.236384	-0.0741063	1.0155	2.09
1.05	-0.0129341	0.0341869	0.0611623	1.16446	0.945838	-0.227559	0.48012	-0.103947	0.0248847	0.114587	0.276576	0.383462	0	-0.244114	0.0273371	0.516722	0.0498136	0.311082	0.0182982	0	-0.110019	-0.0499029	-0.162039	-0.267328	-0.115005	-0.286118	0.581041	2.09	0.102983	-0.236556	-0.0693351	1.02651	2.09
1.06	-0.0124634	0.0342393	0.0692673	1.17682	0.943352	-0.227157	0.478671	-0.103582	0.031902	0.096924	0.279627	0.373322	0	-0.262152	0.022585	0.533651	0.0437554	0.307464	-0.00114088	0	-0.112137	-0.0506944	-0.168003	-0.267973	-0.115575	-0.284129	0.57643	2.09	0.105651	-0.236266	-0.0651809	1.03589	2.09
1.07	-0.0118903	0.034112	0.0766556	1.18932	0.940881	-0.226704	0.479011	-0.102969	0.0308956	0.0895113	0.284138	0.365412	0	-0.279261	0.0179771	0.545413	0.0399613	0.304809	-0.0138801	0	-0.114295	-0.0510544	-0.173457	-0.268254	-0.116346	-0.282534	0.572337	2.09	0.107263	-0.235436	-0.061692	1.04352	2.09
1.08	-0.010869	0.0336658	0.0831448	1.20201	0.938493	-0.226189	0.480271	-0.101807	0.0235539	0.0914806	0.289617	0.359767	0	-0.296051	0.0134183	0.554116	0.0379957	0.301561	-0.0235827	0	-0.116778	-0.0507761	-0.178324	-0.268166	-0.117351	-0.281417	0.568831	2.09	0.107601	-0.233952	-0.0592186	1.04947	2.09
1.09	-0.00940862	0.0329702	0.0886398	1.21492	0.936226	-0.225605	0.482124	-0.100326	0.0105704	0.101921	0.295813	0.358532	0	-0.312231	0.00918741	0.558269	0.0384562	0.298405	-0.0279821	0	-0.119477	-0.049914	-0.182444	-0.26788	-0.118464	-0.281348	0.566127	2.09	0.106598	-0.231758	-0.057783	1.05361	2.09
1.1	-0.00799646	0.0326472	0.093305	1.22803	0.934079	-0.225005	0.487338	-0.101234	-0.0270289	0.12447	0.308004	0.392951	0	-0.326111	0.00641251	0.550668	0.0437036	0.299964	-0.0146594	0	-0.121896	-0.0490738	-0.185622	-0.26784	-0.119137	-0.284687	0.564953	2.09	0.104537	-0.228814	-0.0569189	1.05551	2.09
1.11	-0.00584567	0.0315486	0.0969972	1.24148	0.932178	-0.224275	0.487764	-0.0991732	-0.0373453	0.144528	0.309371	0.387529	0	-0.339888	0.00341886	0.542621	0.0509131	0.298286	-0.00337894	0	-0.124506	-0.0472005	-0.18854	-0.2674	-0.120583	-0.285494	0.563508	2.09	0.100388	-0.225225	-0.0579267	1.05586	2.09
1.12	-0.0043418	0.0306923	0.100433	1.2551	0.930463	-0.22349	0.489254	-0.0983011	-0.0538493	0.169021	0.30842	0.393422	0	-0.346833	0.00201259	0.498661	0.0698147	0.314695	0.0648153	0	-0.126141	-0.0453595	-0.19098	-0.267204	-0.121379	-0.289321	0.563041	2.09	0.0952003	-0.221099	-0.0595001	1.05365	2.09
1.13	-0.00375154	0.0292123	0.103583	1.26889	0.92894	-0.222563	0.490133	-0.0959393	-0.061748	0.19282	0.299749	0.389224	0	-0.34691	-7.08016e-05	0.428284	0.0986133	0.338685	0.170937	0	-0.126279	-0.0428193	-0.192958	-0.267146	-0.121939	-0.293895	0.56269	2.09	0.0887356	-0.216507	-0.0618931	1.04891	2.09
